<svg width="40" height="40" viewBox="0 0 40 40" fill="none" xmlns="http://www.w3.org/2000/svg">
<g id="Apple - icon">
<g id="Group" style="mix-blend-mode:luminosity">
<path id="Vector" d="M34.5125 29.8341C33.9531 31.1268 33.2908 32.3166 32.5232 33.4108C31.4773 34.9021 30.6208 35.9343 29.9608 36.5078C28.9376 37.4487 27.8414 37.9305 26.6675 37.9579C25.8247 37.9579 24.8084 37.7182 23.6254 37.2317C22.4384 36.7474 21.3476 36.5078 20.3503 36.5078C19.3043 36.5078 18.1824 36.7474 16.9825 37.2317C15.7807 37.7182 14.8126 37.9716 14.0723 37.9969C12.9466 38.0445 11.8246 37.549 10.7045 36.5078C9.98968 35.8841 9.09557 34.8152 8.0244 33.3011C6.87516 31.6841 5.93034 29.809 5.19013 27.6713C4.39739 25.3623 4 23.1264 4 20.9618C4 18.4821 4.5358 16.3435 5.60899 14.5514C6.45243 13.1119 7.57449 11.9763 8.97885 11.1427C10.3832 10.3091 11.9006 9.88426 13.5347 9.85709C14.4289 9.85709 15.6014 10.1337 17.0585 10.6772C18.5115 11.2226 19.4445 11.4992 19.8535 11.4992C20.1593 11.4992 21.1958 11.1758 22.9527 10.5311C24.6143 9.93316 26.0165 9.68558 27.1653 9.7831C30.2783 10.0343 32.617 11.2614 34.1722 13.4723C31.3882 15.1591 30.0111 17.5218 30.0385 20.5527C30.0636 22.9135 30.92 24.8781 32.6033 26.438C33.3659 27.162 34.218 27.7216 35.1657 28.119C34.9604 28.715 34.7431 29.286 34.5125 29.8341ZM27.3732 1.74021C27.3732 3.59063 26.6971 5.31836 25.3497 6.91753C23.7236 8.81861 21.7567 9.91718 19.6238 9.74383C19.5966 9.52184 19.5808 9.28819 19.5808 9.04266C19.5808 7.26628 20.3541 5.36517 21.7275 3.81077C22.4131 3.02374 23.2851 2.36935 24.3425 1.84732C25.3976 1.33308 26.3957 1.0487 27.3344 1C27.3618 1.24737 27.3732 1.49476 27.3732 1.74018V1.74021Z" fill="white"/>
</g>
</g>
</svg>
