<svg width="16" height="16" viewBox="0 0 16 16" fill="none" xmlns="http://www.w3.org/2000/svg">
<g id="eye - icon" clip-path="url(#clip0_98_21130)">
<g id="Group">
<path id="Hide" d="M9.98637 8.13472L10.8951 7.22597C10.9613 7.47334 11 7.73197 11 7.99997C11 9.65422 9.65425 11 8 11C7.732 11 7.47337 10.9612 7.226 10.8951L8.13475 9.98634C9.12838 9.91859 9.91862 9.12835 9.98637 8.13472ZM15.937 7.75709C15.8755 7.64647 15.0033 6.1181 13.2983 4.82285L12.5706 5.55047C13.8139 6.4646 14.6016 7.53072 14.9117 8.00072C14.3191 8.90309 11.9944 12 8 12C7.401 12 6.844 11.9233 6.31987 11.8011L5.49825 12.6227C6.25362 12.8543 7.08388 13 8 13C13.2341 13 15.8291 8.43697 15.937 8.24285C16.021 8.09172 16.021 7.90822 15.937 7.75709ZM13.8535 2.85347L2.8535 13.8535C2.75587 13.9511 2.62788 14 2.5 14C2.37212 14 2.24413 13.9511 2.1465 13.8535C1.95113 13.6581 1.95113 13.3417 2.1465 13.1465L3.546 11.747C1.2835 10.3811 0.133875 8.37047 0.063 8.24285C-0.021 8.09172 -0.021 7.90809 0.063 7.75697C0.170875 7.56297 2.76587 2.99997 8 2.99997C9.35337 2.99997 10.5256 3.30872 11.5278 3.76522L13.1465 2.14647C13.3419 1.9511 13.6583 1.9511 13.8535 2.14647C14.0487 2.34185 14.0489 2.65822 13.8535 2.85347ZM4.29163 11.0013L5.5575 9.73547C5.20787 9.24497 5 8.64684 5 7.99997C5 6.34572 6.34575 4.99997 8 4.99997C8.64688 4.99997 9.245 5.20785 9.7355 5.55735L10.7591 4.53372C9.95037 4.20985 9.03137 3.99997 8 3.99997C4.00562 3.99997 1.68087 7.09684 1.08837 7.99922C1.46463 8.56947 2.54612 10.013 4.29163 11.0013ZM6.28337 9.00947L9.0095 6.28334C8.71212 6.10772 8.36975 5.99997 8 5.99997C6.89725 5.99997 6 6.89722 6 7.99997C6 8.36972 6.10775 8.71209 6.28337 9.00947Z" fill="white"/>
</g>
</g>
<defs>
<clipPath id="clip0_98_21130">
<rect width="16" height="16" fill="white"/>
</clipPath>
</defs>
</svg>
