<svg width="40" height="40" viewBox="0 0 40 40" fill="none" xmlns="http://www.w3.org/2000/svg">
<g id="facebook-icon">
<g id="Facbook" style="mix-blend-mode:luminosity">
<path id="Vector" d="M20.5 38C30.7173 38 39 29.7173 39 19.5C39 9.28274 30.7173 1 20.5 1C10.2827 1 2 9.28274 2 19.5C2 29.7173 10.2827 38 20.5 38Z" fill="#1977F3"/>
<path id="Vector_2" d="M27.7013 24.8489L28.5208 19.5H23.3904V16.0294C23.3904 14.5673 24.1058 13.139 26.4057 13.139H28.7393V8.58623C28.7393 8.58623 26.6216 8.22461 24.5975 8.22461C20.3725 8.22461 17.6096 10.7846 17.6096 15.4233V19.5H12.9111V24.8489H17.6096V37.7763C18.5514 37.9246 19.5166 38 20.5 38C21.4834 38 22.4486 37.922 23.3904 37.7763V24.8489H27.7013Z" fill="white"/>
</g>
</g>
</svg>
