<svg width="38" height="38" viewBox="0 0 38 38" fill="none" xmlns="http://www.w3.org/2000/svg">
<g id="Google logo" style="mix-blend-mode:luminosity" clip-path="url(#clip0_98_21095)">
<path id="Vector" d="M37.9799 19.3555C37.9799 17.7987 37.8506 16.6626 37.5708 15.4844H19.3784V22.5112H30.0569C29.8417 24.2575 28.6791 26.8873 26.0956 28.6545L26.0593 28.8897L31.8114 33.2442L32.21 33.2831C35.8699 29.98 37.9799 25.12 37.9799 19.3555Z" fill="#4285F4"/>
<path id="Vector_2" d="M19.3785 37.8695C24.61 37.8695 29.002 36.1863 32.21 33.2831L26.0956 28.6545C24.4594 29.7695 22.2633 30.548 19.3785 30.548C14.2545 30.548 9.90556 27.245 8.35529 22.6796L8.12806 22.6985L2.14694 27.2218L2.06873 27.4343C5.25505 33.6196 11.8 37.8695 19.3785 37.8695Z" fill="#34A853"/>
<path id="Vector_3" d="M8.3553 22.6796C7.94625 21.5015 7.70952 20.2391 7.70952 18.9347C7.70952 17.6303 7.94625 16.368 8.33378 15.1898L8.32295 14.9389L2.26688 10.343L2.06873 10.4351C0.755493 13.0018 0.00195312 15.8841 0.00195312 18.9347C0.00195312 21.9853 0.755493 24.8675 2.06873 27.4342L8.3553 22.6796Z" fill="#FBBC05"/>
<path id="Vector_4" d="M19.3785 7.32138C23.0169 7.32138 25.4712 8.85719 26.8707 10.1406L32.3392 4.92303C28.9807 1.87244 24.6101 0 19.3785 0C11.8 0 5.25506 4.24976 2.06873 10.4351L8.33378 15.1898C9.90557 10.6245 14.2545 7.32138 19.3785 7.32138Z" fill="#EB4335"/>
</g>
<defs>
<clipPath id="clip0_98_21095">
<rect width="38" height="38" fill="white"/>
</clipPath>
</defs>
</svg>
