<svg width="16" height="16" viewBox="0 0 16 16" fill="none" xmlns="http://www.w3.org/2000/svg">
<g id="pass - icon">
<g id="Group">
<g id="Group_2">
<path id="Vector" d="M7.99996 0.470581C5.64702 0.470581 3.76467 2.35293 3.76467 4.70588V6.58823C2.96467 6.58823 2.35291 7.19999 2.35291 7.99999V14.1176C2.35291 14.9176 2.96467 15.5294 3.76467 15.5294H12.2353C13.0353 15.5294 13.647 14.9176 13.647 14.1176V7.99999C13.647 7.19999 13.0353 6.58823 12.2353 6.58823V4.70588C12.2353 2.35293 10.3529 0.470581 7.99996 0.470581ZM12.7058 7.99999V14.1176C12.7058 14.4 12.5176 14.5882 12.2353 14.5882H3.76467C3.48232 14.5882 3.29408 14.4 3.29408 14.1176V7.99999C3.29408 7.71764 3.48232 7.5294 3.76467 7.5294H4.23526H11.7647H12.2353C12.5176 7.5294 12.7058 7.71764 12.7058 7.99999ZM4.70585 6.58823V4.70588C4.70585 2.87058 6.16467 1.41176 7.99996 1.41176C9.83526 1.41176 11.2941 2.87058 11.2941 4.70588V6.58823H4.70585Z" fill="white"/>
<path id="Vector_2" d="M8.00002 8.94116C7.20002 8.94116 6.58826 9.55293 6.58826 10.3529C6.58826 10.9647 6.96473 11.4823 7.52943 11.6706V12.7059C7.52943 12.9882 7.71767 13.1765 8.00002 13.1765C8.28237 13.1765 8.47061 12.9882 8.47061 12.7059V11.6706C9.03532 11.4823 9.41179 10.9647 9.41179 10.3529C9.41179 9.55293 8.80002 8.94116 8.00002 8.94116ZM8.00002 10.8235C7.71767 10.8235 7.52943 10.6353 7.52943 10.3529C7.52943 10.0706 7.71767 9.88234 8.00002 9.88234C8.28237 9.88234 8.47061 10.0706 8.47061 10.3529C8.47061 10.6353 8.28237 10.8235 8.00002 10.8235Z" fill="white"/>
</g>
</g>
</g>
</svg>
