<svg width="40" height="29" viewBox="0 0 40 29" fill="none" xmlns="http://www.w3.org/2000/svg">
<g id="Frame 14787">
<g id="Group" opacity="0.9">
<path id="Vector" d="M9.56594 23.8903C9.22332 23.8904 8.88402 23.8245 8.56743 23.6962C8.25084 23.5679 7.96315 23.3798 7.72081 23.1426L0.764624 16.3306C0.522219 16.0934 0.329924 15.8117 0.198726 15.5017C0.0675287 15.1916 0 14.8593 0 14.5237C0 14.1881 0.0675287 13.8558 0.198726 13.5458C0.329924 13.2357 0.522219 12.9541 0.764624 12.7168L7.72081 5.90481C8.21016 5.42559 8.87388 5.15637 9.56594 5.15637C10.258 5.15637 10.9217 5.42559 11.4111 5.90481C11.9004 6.38403 12.1753 7.03398 12.1753 7.7117C12.1753 8.38941 11.9004 9.03937 11.4111 9.51859L6.29827 14.5237L11.4111 19.5289C11.7761 19.8861 12.0247 20.3414 12.1255 20.8371C12.2262 21.3327 12.1746 21.8465 11.9771 22.3135C11.7795 22.7804 11.445 23.1794 11.0158 23.4601C10.5866 23.7408 10.082 23.8905 9.56594 23.8903Z" fill="white"/>
</g>
<g id="Group_2" opacity="0.9">
<path id="Vector_2" d="M30.434 23.8903C29.9179 23.8905 29.4133 23.7408 28.9841 23.4601C28.5549 23.1794 28.2204 22.7804 28.0229 22.3135C27.8253 21.8465 27.7737 21.3327 27.8744 20.8371C27.9752 20.3414 28.2238 19.8861 28.5888 19.5289L33.7016 14.5237L28.5888 9.51859C28.3465 9.28131 28.1543 8.99961 28.0232 8.68958C27.8921 8.37955 27.8246 8.04727 27.8246 7.7117C27.8246 7.37613 27.8921 7.04384 28.0232 6.73382C28.1543 6.42379 28.3465 6.14209 28.5888 5.90481C29.0782 5.42559 29.7419 5.15637 30.434 5.15637C30.7766 5.15637 31.116 5.22247 31.4325 5.35089C31.7491 5.4793 32.0368 5.66752 32.2791 5.90481L39.2353 12.7168C39.4777 12.9541 39.67 13.2357 39.8012 13.5458C39.9324 13.8558 39.9999 14.1881 39.9999 14.5237C39.9999 14.8593 39.9324 15.1916 39.8012 15.5017C39.67 15.8117 39.4777 16.0934 39.2353 16.3306L32.2791 23.1426C32.0368 23.3798 31.7491 23.5679 31.4325 23.6962C31.1159 23.8245 30.7766 23.8904 30.434 23.8903Z" fill="white"/>
</g>
<g id="Group_3" opacity="0.5">
<path id="Vector_3" d="M16.5213 29C16.2784 28.9997 16.0367 28.9664 15.8031 28.9012C15.1381 28.715 14.5758 28.2778 14.2399 27.6857C13.904 27.0936 13.822 26.3952 14.0119 25.7439L20.968 1.90177C21.0567 1.57331 21.2114 1.26546 21.423 0.996251C21.6346 0.727038 21.899 0.50187 22.2005 0.333928C22.5021 0.165985 22.8349 0.0586423 23.1793 0.0181808C23.5238 -0.0222806 23.8731 0.00495227 24.2066 0.0982869C24.5402 0.191622 24.8514 0.349183 25.1221 0.561747C25.3927 0.774311 25.6174 1.03761 25.7828 1.33622C25.9483 1.63484 26.0512 1.96278 26.0857 2.30084C26.1201 2.63891 26.0854 2.98031 25.9834 3.30505L19.0273 27.1471C18.8717 27.6806 18.543 28.1499 18.0909 28.4842C17.6387 28.8184 17.0878 28.9995 16.5213 29Z" fill="white"/>
</g>
</g>
</svg>
