<svg width="32" height="32" viewBox="0 0 32 32" fill="none" xmlns="http://www.w3.org/2000/svg">
<g clip-path="url(#clip0_22_2666)">
<path d="M26.6562 14.2974C26.2484 11.7269 24.9011 9.45859 22.9821 7.83655C21.0823 6.23075 18.6208 5.26073 15.9551 5.26073C13.2977 5.26073 10.8676 6.22432 8.9957 7.82053C7.09263 9.44323 5.76305 11.7179 5.3539 14.2974L3.9519 14.0748C4.41551 11.1521 5.91967 8.57671 8.07224 6.74121C10.1964 4.92982 12.9494 3.83638 15.9551 3.83638C18.9668 3.83638 21.75 4.93411 23.9002 6.75157C26.0707 8.58611 27.5954 11.1571 28.0583 14.0748L26.6562 14.2974L26.6562 14.2974Z" fill="#00796B"/>
<path d="M16.005 20.0706C14.6269 20.0702 13.3391 19.5192 12.3832 18.5142L12.2681 18.3954L12.1248 18.4786C10.1 19.6483 8.77051 21.6902 8.38382 24.2386L8.36584 24.3324L8.42822 24.4059C10.4493 26.8317 13.1398 28.1646 16.0051 28.1651L16.005 20.0706Z" fill="#ED612D"/>
<path d="M19.885 18.4786L19.741 18.3954L19.6265 18.5142C18.6717 19.5173 17.3877 20.0681 16.0157 20.0706L16.0066 20.0706H16.0049V28.1651H16.0081C18.87 28.1647 21.5607 26.8318 23.5808 24.4059L23.6444 24.3324L23.6263 24.2386C23.2386 21.6902 21.9089 19.6483 19.885 18.4786Z" fill="#ED612D"/>
<path d="M16.005 19.0477L16.0168 19.0475C18.5171 19.0401 20.5517 17.0014 20.5517 14.4997C20.5517 12.0013 18.5245 9.96335 16.0254 9.95121C16.0186 9.95119 16.0118 9.95096 16.005 9.95096V19.0477Z" fill="#ED612D"/>
<path d="M16.0031 19.0477L16.005 19.0477V9.95098L16.0031 9.95096C13.4966 9.95096 11.4584 11.9938 11.4584 14.4997C11.4584 17.006 13.4966 19.0477 16.0031 19.0477Z" fill="#ED612D"/>
<path d="M4.65233 18.5111C3.81308 18.5108 3.02873 18.1752 2.4466 17.5632L2.3765 17.4909L2.28921 17.5415C1.05612 18.2539 0.246458 19.4974 0.0109584 21.0494L0 21.1066L0.0380001 21.1513C1.26883 22.6287 2.90737 23.4404 4.65235 23.4407L4.65233 18.5111Z" fill="#FBC02D"/>
<path d="M7.01536 17.5415L6.92766 17.4909L6.85799 17.5632C6.27647 18.1741 5.49447 18.5096 4.65897 18.5111L4.65341 18.5111H4.65234V23.4407H4.6543C6.39722 23.4405 8.03591 22.6287 9.26618 21.1513L9.30493 21.1066L9.29384 21.0494C9.05772 19.4974 8.24795 18.2539 7.01536 17.5415Z" fill="#F9A825"/>
<path d="M4.65234 17.8885L4.65957 17.8884C6.18224 17.8839 7.4213 16.6423 7.4213 15.1187C7.4213 13.5972 6.18672 12.3561 4.66478 12.3487C4.66061 12.3487 4.65651 12.3485 4.65234 12.3485V17.8885Z" fill="#F9A825"/>
<path d="M4.65109 17.8886L4.65226 17.8885V12.3485H4.65109C3.12463 12.3485 1.8833 13.5927 1.8833 15.1187C1.8833 16.6451 3.12461 17.8886 4.65109 17.8886Z" fill="#FBC02D"/>
<path d="M27.3475 18.5111C26.5083 18.5108 25.7239 18.1752 25.1418 17.5632L25.0717 17.4909L24.9844 17.5415C23.7513 18.2539 22.9416 19.4974 22.7061 21.0494L22.6952 21.1066L22.7332 21.1513C23.964 22.6287 25.6026 23.4404 27.3476 23.4407L27.3475 18.5111Z" fill="#FBC02D"/>
<path d="M29.7104 17.5415L29.6227 17.4909L29.553 17.5632C28.9715 18.1741 28.1895 18.5096 27.354 18.5111L27.3485 18.5111H27.3474V23.4407H27.3493C29.0923 23.4405 30.731 22.6287 31.9612 21.1513L32 21.1066L31.9889 21.0494C31.7528 19.4974 30.943 18.2539 29.7104 17.5415Z" fill="#F9A825"/>
<path d="M27.3476 17.8885L27.3548 17.8884C28.8774 17.8839 30.1165 16.6423 30.1165 15.1187C30.1165 13.5972 28.8819 12.3561 27.36 12.3487C27.3558 12.3487 27.3517 12.3485 27.3475 12.3485V17.8885H27.3476Z" fill="#F9A825"/>
<path d="M27.3463 17.8886L27.3475 17.8885V12.3485H27.3463C25.8198 12.3485 24.5785 13.5927 24.5785 15.1187C24.5785 16.6451 25.8198 17.8886 27.3463 17.8886Z" fill="#FBC02D"/>
</g>
<defs>
<clipPath id="clip0_22_2666">
<rect width="32" height="32" fill="white"/>
</clipPath>
</defs>
</svg>
