<svg width="32" height="32" viewBox="0 0 32 32" fill="none" xmlns="http://www.w3.org/2000/svg">
<g clip-path="url(#clip0_22_2690)">
<path d="M16.0658 17.3341C14.25 17.3335 12.553 16.6075 11.2934 15.2832L11.1418 15.1267L10.953 15.2363C8.28498 16.7777 6.53321 19.4681 6.02369 22.826L6 22.9497L6.08219 23.0465C8.74528 26.2429 12.2904 27.9992 16.0659 27.9999L16.0658 17.3341Z" fill="#ED612D"/>
<path d="M21.1783 15.2363L20.9886 15.1267L20.8378 15.2832C19.5796 16.605 17.8877 17.3308 16.0799 17.334L16.068 17.3341H16.0657V27.9999H16.0699C19.8409 27.9993 23.3864 26.243 26.0482 23.0465L26.132 22.9497L26.1081 22.826C25.5972 19.4681 23.8451 16.7777 21.1783 15.2363Z" fill="#ED612D"/>
<path d="M16.0658 15.9862L16.0814 15.9859C19.3759 15.9761 22.0567 13.2898 22.0567 9.99342C22.0567 6.70142 19.3856 4.01612 16.0927 4.00012C16.0837 4.00009 16.0748 3.99979 16.0658 3.99979V15.9862Z" fill="#ED612D"/>
<path d="M16.0633 15.9862L16.0659 15.9862V3.99981L16.0633 3.99979C12.7606 3.99979 10.075 6.69159 10.075 9.99345C10.075 13.2959 12.7607 15.9862 16.0633 15.9862Z" fill="#ED612D"/>
</g>
<defs>
<clipPath id="clip0_22_2690">
<rect width="32" height="32" fill="white"/>
</clipPath>
</defs>
</svg>
