<svg width="31" height="31" viewBox="0 0 31 31" fill="none" xmlns="http://www.w3.org/2000/svg">
<g id="gg:menu-right">
<path id="Vector" d="M2.58342 23.2565C2.58342 23.9669 3.1595 24.5417 3.86863 24.5417H14.2149C14.5557 24.5417 14.8826 24.4063 15.1237 24.1653C15.3647 23.9243 15.5001 23.5974 15.5001 23.2565C15.5001 22.9156 15.3647 22.5887 15.1237 22.3477C14.8826 22.1067 14.5557 21.9713 14.2149 21.9713H3.86863C3.15821 21.9713 2.58342 22.5461 2.58342 23.2565ZM2.58342 15.5C2.58342 16.2105 3.1595 16.7852 3.86863 16.7852H27.1315C27.4724 16.7852 27.7993 16.6498 28.0403 16.4088C28.2813 16.1678 28.4167 15.8409 28.4167 15.5C28.4167 15.1592 28.2813 14.8323 28.0403 14.5913C27.7993 14.3502 27.4724 14.2148 27.1315 14.2148H3.86863C3.15821 14.2148 2.58342 14.7909 2.58342 15.5ZM3.86863 9.02879C3.52777 9.02879 3.20087 8.89339 2.95984 8.65236C2.71882 8.41134 2.58342 8.08444 2.58342 7.74358C2.58342 7.40272 2.71882 7.07583 2.95984 6.8348C3.20087 6.59378 3.52777 6.45837 3.86863 6.45837H19.3815C19.5503 6.45837 19.7174 6.49162 19.8734 6.5562C20.0293 6.62079 20.171 6.71546 20.2903 6.8348C20.4097 6.95415 20.5043 7.09583 20.5689 7.25175C20.6335 7.40768 20.6667 7.57481 20.6667 7.74358C20.6667 7.91236 20.6335 8.07948 20.5689 8.23541C20.5043 8.39134 20.4097 8.53302 20.2903 8.65236C20.171 8.7717 20.0293 8.86637 19.8734 8.93096C19.7174 8.99555 19.5503 9.02879 19.3815 9.02879H3.86863Z" fill="url(#paint0_linear_1596_4334)"/>
</g>
<defs>
<linearGradient id="paint0_linear_1596_4334" x1="1.47258" y1="8.15821" x2="19.8446" y2="31.1772" gradientUnits="userSpaceOnUse">
<stop stop-color="#E74B90"/>
<stop offset="0.0001" stop-color="#E74B90"/>
<stop offset="1" stop-color="#E28C6F"/>
</linearGradient>
</defs>
</svg>
