<svg width="16" height="16" viewBox="0 0 16 16" fill="none" xmlns="http://www.w3.org/2000/svg">
<g id="fluent-mdl2:world" clip-path="url(#clip0_1521_691)">
<path id="Vector" d="M3.8749 6.89839C3.9426 6.89839 4.01812 6.90881 4.10146 6.92964C4.18479 6.95048 4.26812 6.97912 4.35146 7.01558C4.43479 7.05204 4.51812 7.08589 4.60146 7.11714C4.68479 7.14839 4.76031 7.17964 4.82802 7.21089L4.70302 7.22652C4.66135 7.23173 4.61708 7.23433 4.57021 7.23433C4.48167 7.23433 4.40094 7.22131 4.32802 7.19527C4.2551 7.16923 4.1874 7.13537 4.1249 7.09371C4.0624 7.05204 3.9999 7.02079 3.9374 6.99996C3.8749 6.97912 3.8176 6.9635 3.76552 6.95308C3.71344 6.95308 3.66656 6.9635 3.6249 6.98433C3.58323 7.00516 3.54156 7.0286 3.4999 7.05464C3.4999 7.03381 3.48167 7.02339 3.44521 7.02339C3.48167 6.98694 3.54937 6.95829 3.64833 6.93746C3.74729 6.91662 3.82281 6.9036 3.8749 6.89839ZM4.92958 7.24996C5.14312 7.24996 5.33844 7.28641 5.51552 7.35933C5.4426 7.38537 5.36969 7.40621 5.29677 7.42183C5.22385 7.43746 5.14833 7.44787 5.07021 7.45308C4.96604 7.45308 4.87229 7.44266 4.78896 7.42183C4.815 7.38016 4.84104 7.35412 4.86708 7.34371C4.89312 7.33329 4.91396 7.30204 4.92958 7.24996ZM7.9999 -4.38201e-05C8.73427 -4.38201e-05 9.44 0.0963104 10.1171 0.289019C10.7942 0.481727 11.4296 0.749956 12.0233 1.09371C12.6171 1.43746 13.1587 1.85673 13.6483 2.35152C14.1379 2.84631 14.5546 3.38537 14.8983 3.96871C15.2421 4.55204 15.5129 5.18746 15.7108 5.87496C15.9087 6.56246 16.0051 7.27079 15.9999 7.99996C15.9999 8.73433 15.9035 9.44006 15.7108 10.1171C15.5181 10.7942 15.2499 11.4296 14.9061 12.0234C14.5624 12.6171 14.1431 13.1588 13.6483 13.6484C13.1535 14.138 12.6145 14.5546 12.0311 14.8984C11.4478 15.2421 10.8124 15.513 10.1249 15.7109C9.4374 15.9088 8.72906 16.0052 7.9999 16C7.26552 16 6.55979 15.9036 5.88271 15.7109C5.20562 15.5182 4.57021 15.25 3.97646 14.9062C3.38271 14.5625 2.84104 14.1432 2.35146 13.6484C1.86187 13.1536 1.44521 12.6145 1.10146 12.0312C0.757708 11.4479 0.486874 10.8125 0.288958 10.125C0.091041 9.43746 -0.00531319 8.72912 -0.000104855 7.99996C-0.000104855 7.26558 0.0962493 6.55985 0.288958 5.88277C0.481666 5.20569 0.749895 4.57027 1.09365 3.97652C1.4374 3.38277 1.85667 2.8411 2.35146 2.35152C2.84625 1.86194 3.38531 1.44527 3.96865 1.10152C4.55198 0.757769 5.1874 0.486935 5.8749 0.289019C6.5624 0.091102 7.27073 -0.00525215 7.9999 -4.38201e-05ZM13.953 4.33589C13.8801 4.22131 13.8072 4.11194 13.7343 4.00777C13.6614 3.9036 13.5858 3.79683 13.5077 3.68746C13.4973 3.73433 13.4843 3.76819 13.4686 3.78902C13.453 3.80985 13.4426 3.85673 13.4374 3.92964C13.4374 3.97652 13.4556 4.02079 13.4921 4.06246C13.5285 4.10412 13.5754 4.14579 13.6327 4.18746C13.69 4.22912 13.7473 4.26037 13.8046 4.28121C13.8619 4.30204 13.9114 4.32027 13.953 4.33589ZM13.414 3.57027C13.414 3.61194 13.4061 3.64058 13.3905 3.65621H13.4374C13.4582 3.65621 13.4739 3.65881 13.4843 3.66402L13.414 3.57027ZM7.9999 15C8.59365 15 9.17437 14.9244 9.74208 14.7734C10.3098 14.6224 10.8462 14.4088 11.3515 14.1328C11.8567 13.8567 12.3254 13.5182 12.7577 13.1171C13.19 12.7161 13.5676 12.2682 13.8905 11.7734C13.8228 11.6171 13.7577 11.4583 13.6952 11.2968C13.6327 11.1354 13.6015 10.9687 13.6015 10.7968C13.6015 10.6093 13.6093 10.4583 13.6249 10.3437C13.6405 10.2291 13.6587 10.1276 13.6796 10.039C13.7004 9.95048 13.7108 9.87496 13.7108 9.81246C13.7108 9.74996 13.703 9.66923 13.6874 9.57027C13.6718 9.47131 13.6275 9.36454 13.5546 9.24996C13.4817 9.13537 13.3853 8.97391 13.2655 8.76558C13.2707 8.72912 13.2785 8.67964 13.289 8.61714C13.2994 8.55464 13.3098 8.48954 13.3202 8.42183C13.3306 8.35412 13.3332 8.29162 13.328 8.23433C13.3228 8.17704 13.3098 8.12756 13.289 8.08589C13.1535 8.07027 13.0129 8.04162 12.8671 7.99996C12.7212 7.95829 12.591 7.89579 12.4765 7.81246L12.5233 7.77339C12.4556 7.78902 12.3879 7.80985 12.3202 7.83589C12.2525 7.86194 12.1874 7.89058 12.1249 7.92183C12.0624 7.95308 11.9947 7.97391 11.9218 7.98433C11.8489 7.99475 11.7785 8.00516 11.7108 8.01558L11.5858 7.99996L11.6093 7.94527C11.5364 7.9661 11.4582 7.99214 11.3749 8.02339C11.2916 8.05464 11.2108 8.07027 11.1327 8.07027C11.0806 8.07027 11.0051 8.05204 10.9061 8.01558C10.8072 7.97912 10.7082 7.93485 10.6093 7.88277C10.5103 7.83069 10.4218 7.77339 10.3436 7.71089C10.2655 7.64839 10.2265 7.5885 10.2265 7.53121L10.2421 7.50777C10.216 7.47652 10.1822 7.44787 10.1405 7.42183C10.0989 7.39579 10.0598 7.36975 10.0233 7.34371C9.98687 7.31766 9.95302 7.28902 9.92177 7.25777C9.89052 7.22652 9.8775 7.19006 9.88271 7.14839L9.96865 7.07808L9.78896 7.05464L9.72646 6.82027C9.73687 6.84631 9.76031 6.85673 9.79677 6.85152C9.83323 6.84631 9.86187 6.83589 9.88271 6.82027L9.60146 6.67183L9.79677 6.17183C9.72385 5.901 9.70562 5.69266 9.74208 5.54683C9.77854 5.401 9.84885 5.28121 9.95302 5.18746C10.0572 5.09371 10.1718 4.99996 10.2968 4.90621C10.4218 4.81246 10.5494 4.68485 10.6796 4.52339L10.6561 4.42964L11.1718 3.80464L11.289 3.78902C11.4348 3.78902 11.5989 3.78381 11.7811 3.77339C11.9634 3.76298 12.1483 3.74475 12.3358 3.71871C12.5233 3.69266 12.7082 3.66662 12.8905 3.64058C13.0728 3.61454 13.2395 3.58069 13.3905 3.53902C13.2239 3.3411 13.0494 3.1536 12.8671 2.97652C12.6848 2.79944 12.4895 2.63016 12.2811 2.46871C12.2239 2.48954 12.1535 2.51819 12.0702 2.55464C11.9869 2.5911 11.9035 2.63798 11.8202 2.69527C11.7369 2.75256 11.6718 2.81506 11.6249 2.88277C11.578 2.95048 11.5494 3.02079 11.539 3.09371L11.5858 3.24214C11.4921 3.39319 11.3879 3.48694 11.2733 3.52339C11.1587 3.55985 11.0416 3.58069 10.9218 3.58589C10.802 3.5911 10.677 3.5911 10.5468 3.58589C10.4166 3.58069 10.2916 3.60412 10.1718 3.65621L10.0468 3.39058L10.164 2.93746L10.0311 2.74214L11.3827 2.32027C11.3254 2.17444 11.2317 2.06506 11.1015 1.99214C10.9712 1.91923 10.828 1.88277 10.6718 1.88277V1.80464L11.1093 1.73433C10.6249 1.49475 10.1223 1.31246 9.60146 1.18746C9.08062 1.06246 8.54677 0.999956 7.9999 0.999956C7.54677 0.999956 7.09885 1.04423 6.65615 1.13277C6.21344 1.22131 5.78635 1.34891 5.3749 1.51558C4.96344 1.68225 4.565 1.89058 4.17958 2.14058C3.79417 2.39058 3.4426 2.67183 3.1249 2.98433C3.26031 2.98433 3.36448 3.01819 3.4374 3.08589C3.51031 3.1536 3.57802 3.22912 3.64052 3.31246C3.70302 3.39579 3.76812 3.47131 3.83583 3.53902C3.90354 3.60673 3.99469 3.64319 4.10927 3.64839L4.23427 3.55464L4.21865 3.38277L4.47646 3.01558L4.27333 2.43746C4.29937 2.42183 4.33844 2.39579 4.39052 2.35933C4.4426 2.32287 4.48687 2.30464 4.52333 2.30464C4.67958 2.30464 4.79937 2.31246 4.88271 2.32808C4.96604 2.34371 5.03896 2.37235 5.10146 2.41402C5.16396 2.45569 5.21865 2.51558 5.26552 2.59371C5.3124 2.67183 5.38531 2.77079 5.48427 2.89058L5.76552 2.67183C5.8176 2.69266 5.90094 2.72652 6.01552 2.77339C6.1301 2.82027 6.24729 2.87756 6.36708 2.94527C6.48687 3.01298 6.58844 3.08329 6.67177 3.15621C6.7551 3.22912 6.79937 3.29683 6.80458 3.35933C6.80458 3.43746 6.77594 3.49996 6.71865 3.54683C6.66135 3.59371 6.58583 3.63277 6.49208 3.66402C6.39833 3.69527 6.30198 3.71871 6.20302 3.73433C6.10406 3.74996 6.0051 3.77079 5.90615 3.79683C5.80719 3.82287 5.73167 3.84891 5.67958 3.87496C5.6275 3.901 5.59625 3.94527 5.58583 4.00777L6.03896 4.15621C5.93479 4.24475 5.82281 4.32548 5.70302 4.39839C5.58323 4.47131 5.45823 4.53902 5.32802 4.60152L5.35927 4.73433L4.64052 5.01558V5.23433L4.58583 5.25777L4.6249 4.98433L4.59365 4.97652C4.55719 4.97652 4.53635 4.98433 4.53115 4.99996C4.52594 5.01558 4.52333 5.03381 4.52333 5.05464C4.52333 5.07548 4.52854 5.09631 4.53896 5.11714C4.54937 5.13798 4.55198 5.1536 4.54677 5.16402L4.44521 5.10933L4.46083 5.14058C4.46083 5.15621 4.46865 5.17964 4.48427 5.21089C4.4999 5.24214 4.52073 5.27079 4.54677 5.29683C4.57281 5.32287 4.59365 5.34891 4.60927 5.37496C4.6249 5.401 4.63531 5.41402 4.64052 5.41402C4.64052 5.42964 4.6301 5.44527 4.60927 5.46089C4.58844 5.47652 4.5624 5.48694 4.53115 5.49214C4.4999 5.49735 4.47906 5.50516 4.46865 5.51558C4.45823 5.526 4.45823 5.5286 4.46865 5.52339C4.54156 5.52339 4.55719 5.5286 4.51552 5.53902C4.47385 5.54944 4.40875 5.57548 4.32021 5.61714C4.23167 5.65881 4.15094 5.71871 4.07802 5.79683C4.0051 5.87496 3.96344 5.98954 3.95302 6.14058C3.95302 6.22912 3.95562 6.31506 3.96083 6.39839C3.96604 6.48173 3.96344 6.56766 3.95302 6.65621C3.8801 6.45829 3.77073 6.30725 3.6249 6.20308C3.47906 6.09891 3.30198 6.04683 3.09365 6.04683L2.75771 6.07808L2.92177 6.18746C2.83323 6.17704 2.74208 6.16662 2.64833 6.15621C2.55458 6.14579 2.45823 6.14319 2.35927 6.14839C2.26031 6.1536 2.17177 6.17444 2.09365 6.21089C2.01552 6.24735 1.9374 6.30204 1.85927 6.37496L1.8124 6.72652C1.8124 6.89319 1.84885 7.0286 1.92177 7.13277C1.99469 7.23694 2.12229 7.29162 2.30458 7.29683C2.46083 7.29683 2.61448 7.27339 2.76552 7.22652C2.91656 7.17964 3.065 7.12496 3.21083 7.06246C3.16396 7.17704 3.11187 7.28641 3.05458 7.39058C2.99729 7.49475 2.95562 7.60933 2.92958 7.73433L3.03115 7.78121C3.15615 7.69787 3.27073 7.68485 3.3749 7.74214C3.47906 7.79944 3.58062 7.88277 3.67958 7.99214C3.77854 8.10152 3.8801 8.2135 3.98427 8.32808C4.08844 8.44266 4.20042 8.526 4.32021 8.57808L4.05458 8.71871L3.42958 8.36714C3.43479 8.37756 3.44 8.401 3.44521 8.43746C3.45042 8.47391 3.44781 8.48173 3.4374 8.46089L3.15615 7.98433C2.98948 7.97912 2.8124 7.95308 2.6249 7.90621C2.4374 7.85933 2.24729 7.79683 2.05458 7.71871C1.86187 7.64058 1.68219 7.55464 1.51552 7.46089C1.34885 7.36714 1.19521 7.26819 1.05458 7.16402L0.999895 7.99996C0.999895 8.63537 1.08583 9.25516 1.25771 9.85933C1.42958 10.4635 1.67177 11.0312 1.98427 11.5625C2.29677 12.0937 2.67958 12.5781 3.13271 13.0156C3.58583 13.4531 4.08844 13.8255 4.64052 14.1328C4.61448 14.0234 4.61187 13.914 4.63271 13.8046C4.65354 13.6953 4.67958 13.5859 4.71083 13.4765C4.74208 13.3671 4.77594 13.2578 4.8124 13.1484C4.84885 13.039 4.86708 12.927 4.86708 12.8125C4.86708 12.6458 4.84104 12.4713 4.78896 12.289C4.73687 12.1067 4.67437 11.9218 4.60146 11.7343C4.52854 11.5468 4.44781 11.3619 4.35927 11.1796C4.27073 10.9974 4.20042 10.8255 4.14833 10.664C4.09625 10.5026 4.05458 10.3515 4.02333 10.2109C3.99208 10.0703 4.00771 9.94787 4.07021 9.84371L3.95302 9.78902C3.98427 9.7161 4.02594 9.64579 4.07802 9.57808C4.1301 9.51037 4.18479 9.44266 4.24208 9.37496C4.29937 9.30725 4.34365 9.23433 4.3749 9.15621C4.40615 9.07808 4.42437 8.99996 4.42958 8.92183C4.42958 8.86975 4.41917 8.81506 4.39833 8.75777C4.3775 8.70048 4.35927 8.64579 4.34365 8.59371L4.50771 8.63277C4.59625 8.42964 4.71604 8.29162 4.86708 8.21871C5.01812 8.14579 5.20823 8.10673 5.4374 8.10152C5.46344 8.10152 5.51812 8.11194 5.60146 8.13277C5.68479 8.1536 5.77333 8.18225 5.86708 8.21871C5.96083 8.25516 6.04937 8.28381 6.13271 8.30464C6.21604 8.32548 6.27854 8.34631 6.32021 8.36714C6.32021 8.4036 6.34104 8.42704 6.38271 8.43746C6.42437 8.44787 6.44781 8.4661 6.45302 8.49214L6.4374 8.55464C6.45302 8.55985 6.48948 8.57808 6.54677 8.60933C6.60406 8.64058 6.66656 8.67964 6.73427 8.72652C6.80198 8.77339 6.86187 8.81506 6.91396 8.85152C6.96604 8.88798 7.0025 8.91662 7.02333 8.93746C7.11708 8.93746 7.24469 8.96871 7.40615 9.03121C7.5676 9.09371 7.74469 9.17183 7.9374 9.26558C8.1301 9.35933 8.32021 9.47131 8.50771 9.60152C8.69521 9.73173 8.87229 9.86194 9.03896 9.99214C9.20562 10.1224 9.33323 10.2526 9.42177 10.3828C9.51031 10.513 9.5624 10.6276 9.57802 10.7265L9.3124 11.0078C9.33323 11.2734 9.315 11.4765 9.25771 11.6171C9.20042 11.7578 9.11187 11.875 8.99208 11.9687C8.87229 12.0625 8.73427 12.1406 8.57802 12.2031C8.42177 12.2656 8.2525 12.3541 8.07021 12.4687C8.07021 12.5729 8.04417 12.6849 7.99208 12.8046C7.94 12.9244 7.8749 13.039 7.79677 13.1484C7.71865 13.2578 7.6249 13.3489 7.51552 13.4218C7.40615 13.4947 7.29677 13.5312 7.1874 13.5312L6.85927 13.2812C6.86969 13.2916 6.86969 13.3099 6.85927 13.3359C6.84885 13.3619 6.83583 13.3671 6.82021 13.3515C6.87229 13.4505 6.88531 13.5651 6.85927 13.6953C6.83323 13.8255 6.78896 13.9583 6.72646 14.0937C6.66396 14.2291 6.59365 14.3567 6.51552 14.4765C6.4374 14.5963 6.36708 14.6979 6.30458 14.7812C6.58583 14.8541 6.86708 14.9088 7.14833 14.9453C7.42958 14.9817 7.71344 15 7.9999 15Z" fill="url(#paint0_linear_1521_691)"/>
</g>
<defs>
<linearGradient id="paint0_linear_1521_691" x1="16.6881" y1="1.50379" x2="0.159699" y2="16.0002" gradientUnits="userSpaceOnUse">
<stop stop-color="#E74B90"/>
<stop offset="0.0001" stop-color="#E74B90"/>
<stop offset="1" stop-color="#E28C6F"/>
</linearGradient>
<clipPath id="clip0_1521_691">
<rect width="16" height="16" fill="white"/>
</clipPath>
</defs>
</svg>
