<svg width="100" height="100" viewBox="0 0 100 100" fill="none" xmlns="http://www.w3.org/2000/svg">
<g id="ri:image-add-fill">
<path id="Vector" d="M87.5006 62.5V75H100.001V83.3333H87.5006V95.8333H79.1673V83.3333H66.6673V75H79.1673V62.5H87.5006ZM87.534 12.5C89.8173 12.5 91.6673 14.3542 91.6673 16.6375V55.5917C88.9908 54.6462 86.1726 54.1643 83.334 54.1667V20.8333H16.6673L16.6715 79.1667L55.3881 40.4458C56.1046 39.727 57.0591 39.2947 58.0719 39.2303C59.0848 39.1658 60.0863 39.4736 60.8881 40.0958L61.2798 40.45L76.0507 55.2417C72.82 56.2261 69.8222 57.8546 67.2379 60.029C64.6537 62.2034 62.5365 64.8786 61.0142 67.8933C59.4918 70.9081 58.5958 74.1999 58.38 77.5703C58.1643 80.9408 58.6334 84.3199 59.759 87.5042L12.4673 87.5C11.3707 87.4989 10.3194 87.0625 9.54436 86.2867C8.76933 85.5109 8.33398 84.4591 8.33398 83.3625V16.6375C8.34161 15.5432 8.7794 14.4959 9.55279 13.7217C10.3262 12.9476 11.3731 12.5087 12.4673 12.5H87.534ZM33.334 29.1667C35.5441 29.1667 37.6637 30.0446 39.2265 31.6074C40.7893 33.1702 41.6673 35.2899 41.6673 37.5C41.6673 39.7101 40.7893 41.8298 39.2265 43.3926C37.6637 44.9554 35.5441 45.8333 33.334 45.8333C31.1238 45.8333 29.0042 44.9554 27.4414 43.3926C25.8786 41.8298 25.0007 39.7101 25.0007 37.5C25.0007 35.2899 25.8786 33.1702 27.4414 31.6074C29.0042 30.0446 31.1238 29.1667 33.334 29.1667Z" fill="#C9C9C9"/>
</g>
</svg>
