<svg width="24" height="24" viewBox="0 0 24 24" fill="none" xmlns="http://www.w3.org/2000/svg">
<g id="Group">
<path id="Vector" d="M22.1804 21.7182L16.1919 16.5455L22.1804 11.3727V21.7391V21.7182ZM2.74176 22.3675L8.683 17.2577L9.09798 16.9018C10.7102 15.5196 13.2662 15.5196 14.8784 16.9018L15.2934 17.2577L21.1896 22.3675H2.71815H2.74176ZM1.77349 11.3098L7.76196 16.4826L1.77349 21.6558V11.2889V11.3098ZM5.96598 4.3573H17.9654V13.446L15.2709 15.7918C13.3132 14.4305 10.6177 14.4305 8.683 15.7918L5.98847 13.446V4.3573H5.96598ZM19.7614 5.08998V2.72372H15.57L11.9769 0.00109863L8.38386 2.72372H4.19249V5.1319L0 8.75491V24.0011H24V8.75491L19.8075 5.08998H19.7614Z" fill="#EFEFEF"/>
<path id="Vector_2" d="M11.9774 10.4508C11.4477 10.4508 11.0102 10.0321 11.0102 9.57137C11.0102 9.0897 11.4707 8.69144 11.9774 8.69144C12.5071 8.69144 12.9445 9.06875 12.9445 9.57137C12.9445 10.074 12.5301 10.4508 11.9774 10.4508ZM11.9774 13.0896C12.6683 13.0896 13.3365 12.9221 13.9353 12.6499C14.1656 12.5033 14.2574 12.2309 14.1422 12.0215C13.981 11.8121 13.682 11.7281 13.4517 11.8328C12.9911 12.0422 12.4841 12.1682 11.9774 12.1682C10.3882 12.1682 9.07539 10.9745 9.09842 9.52945C9.09842 8.08442 10.4107 6.89067 11.9999 6.89067C13.5891 6.89067 14.9025 8.06347 14.9025 9.52945V10.4089C14.3727 10.4089 13.9353 10.0321 13.9353 9.52945C13.9353 8.64986 13.2675 7.91667 12.3463 7.74913C11.425 7.58159 10.4802 8.04237 10.1578 8.83818C9.83534 9.634 10.158 10.5555 10.9641 10.9953C11.7702 11.4351 12.8299 11.2887 13.4517 10.6395C13.8202 11.0164 14.3492 11.2464 14.9249 11.2464C15.4547 11.2464 15.8932 10.8696 15.8932 10.3669V9.48752C15.8932 7.51893 14.1418 5.94836 11.9999 5.94836C9.85793 5.94836 8.10765 7.53987 8.10765 9.48752C8.08462 11.4771 9.8124 13.0686 11.9774 13.0896Z" fill="url(#paint0_linear_123_10236)"/>
</g>
<defs>
<linearGradient id="paint0_linear_123_10236" x1="8.10765" y1="9.52944" x2="15.9163" y2="9.52944" gradientUnits="userSpaceOnUse">
<stop stop-color="#FAAE3C"/>
<stop offset="0.37" stop-color="#F9A836"/>
<stop offset="0.83" stop-color="#F69927"/>
<stop offset="1" stop-color="#F59220"/>
</linearGradient>
</defs>
</svg>
