<svg width="24" height="24" viewBox="0 0 24 24" fill="none" xmlns="http://www.w3.org/2000/svg">
<g id="Group">
<path id="Vector" d="M11.9885 20.7925C11.9885 20.7925 5.93945 11.3475 5.93945 6.06082C5.93945 2.74284 8.67667 0 11.9885 0C15.3003 0 18.0386 2.74284 18.0386 6.06082C18.0386 11.259 11.9885 20.7925 11.9885 20.7925ZM11.9885 8.13996C13.1145 8.13996 13.9754 7.18893 13.9754 6.06082C13.9754 5.02119 13.1145 4.06998 11.9885 4.06998C10.8625 4.06998 10.0016 5.02119 10.0016 6.06082C10.0016 7.18893 10.8625 8.13996 11.9885 8.13996Z" fill="#EFEFEF"/>
<path id="Vector_2" d="M23.9784 19.953C23.9784 22.6073 17.9284 24.0011 11.9892 24.0011C6.05 24.0011 0 22.6073 0 19.953C0 17.6967 3.86449 16.6573 6.22693 16.2812L6.5137 17.7852C2.73821 18.4488 1.50175 19.4884 1.50175 19.953C1.50175 20.7935 5.56427 22.4968 11.9892 22.4968C18.4142 22.4968 22.4767 20.7935 22.4767 19.953C22.4767 19.4884 21.439 18.4488 17.5531 17.7852L17.7515 16.2812C21.9023 17.0333 24 18.2497 24 19.953" fill="url(#paint0_linear_123_10222)"/>
</g>
<defs>
<linearGradient id="paint0_linear_123_10222" x1="-0.0220791" y1="20.1301" x2="23.9779" y2="20.1301" gradientUnits="userSpaceOnUse">
<stop stop-color="#FAAE3C"/>
<stop offset="0.37" stop-color="#F9A836"/>
<stop offset="0.83" stop-color="#F69927"/>
<stop offset="1" stop-color="#F59220"/>
</linearGradient>
</defs>
</svg>
