<svg width="24" height="24" viewBox="0 0 24 24" fill="none" xmlns="http://www.w3.org/2000/svg">
<g id="ion:log-in-outline">
<path id="Vector" d="M15 8.25V6.375C15 5.87772 14.8025 5.40081 14.4508 5.04917C14.0992 4.69754 13.6223 4.5 13.125 4.5H5.625C5.12772 4.5 4.65081 4.69754 4.29917 5.04917C3.94754 5.40081 3.75 5.87772 3.75 6.375V17.625C3.75 18.1223 3.94754 18.5992 4.29917 18.9508C4.65081 19.3025 5.12772 19.5 5.625 19.5H12.75C13.7855 19.5 15 18.6605 15 17.625V15.75" stroke="white" stroke-width="1.5" stroke-linecap="round" stroke-linejoin="round"/>
<path id="Vector_2" d="M10.5 15.75L6.75 12L10.5 8.25M20.25 12H7.5" stroke="white" stroke-width="1.5" stroke-linecap="round" stroke-linejoin="round"/>
</g>
</svg>
