<svg width="24" height="24" viewBox="0 0 24 24" fill="none" xmlns="http://www.w3.org/2000/svg">
<g id="Group">
<path id="Vector" d="M7.74901 9.18436C7.94586 8.98423 8.05445 8.69497 8.05445 8.42814C8.05445 8.13907 7.94586 7.87257 7.74901 7.65021L4.33676 4.15901C4.13991 3.95888 3.85535 3.84792 3.57101 3.82568C3.28667 3.82568 3.02398 3.93665 2.80526 4.15901L2.43359 4.53684L7.37628 9.53994L7.77037 9.1621L7.74901 9.18436Z" fill="#EFEFEF"/>
<path id="Vector_2" d="M12.7141 18.1008C12.5172 18.3231 12.167 18.3231 11.9483 18.1008L5.82337 11.8523C5.60464 11.63 5.60464 11.2967 5.82337 11.0744L6.58912 10.3182L1.6678 5.31506C1.33971 5.6486 1.03375 5.95962 0.836895 6.13751C0.333826 6.60447 0.0497389 7.24944 0.00599384 7.93876C-0.0377513 9.05056 0.158589 10.1845 0.574168 11.2074C0.989746 12.1413 1.47133 13.0311 2.06189 13.8539C4.09603 16.9447 6.65504 19.6349 9.6297 21.814C10.1328 22.192 10.6571 22.5254 11.2039 22.8145C12.4288 23.4816 13.785 23.8819 15.163 23.9931C16.1035 24.0598 17.0438 23.6819 17.6781 22.9926L18.3563 22.3031L13.4136 17.3L12.6703 18.0785L12.7141 18.1008Z" fill="#EFEFEF"/>
<path id="Vector_3" d="M19.5371 19.6132L16.1249 16.122C15.7093 15.6996 15.0319 15.6996 14.5944 16.122L14.2441 16.5227L19.1655 21.548L19.5371 21.1919C19.9527 20.7694 19.9527 20.0802 19.5371 19.6355V19.6132Z" fill="#EFEFEF"/>
<path id="Vector_4" d="M16.8269 12.8319H15.383C15.2299 10.7195 13.7427 8.96294 11.7305 8.49598V7.00635C14.552 7.51778 16.652 9.94124 16.8269 12.8541V12.8319Z" fill="url(#paint0_linear_123_10227)"/>
<path id="Vector_5" d="M20.2831 12.0984C20.2831 12.343 20.2825 12.5872 20.2607 12.8318H18.8167C18.8386 12.5872 18.8605 12.343 18.8605 12.0984C18.8605 8.11818 15.6671 4.87173 11.752 4.87173V3.40381C16.4764 3.40381 20.3045 7.29545 20.3045 12.0984H20.2831Z" fill="url(#paint1_linear_123_10227)"/>
<path id="Vector_6" d="M24.0007 12.098C24.0007 12.3426 24.0012 12.5868 23.9793 12.8314H22.5354C22.5354 12.5868 22.5578 12.3426 22.5578 12.098C22.5578 6.22768 17.8765 1.46912 12.1021 1.46912H11.7305V0.00146484H12.0808C18.6644 0.00146484 23.9793 5.42718 23.9793 12.098H24.0007Z" fill="url(#paint2_linear_123_10227)"/>
</g>
<defs>
<linearGradient id="paint0_linear_123_10227" x1="11.7305" y1="9.8969" x2="16.8269" y2="9.8969" gradientUnits="userSpaceOnUse">
<stop stop-color="#FAAE3C"/>
<stop offset="0.37" stop-color="#F9A836"/>
<stop offset="0.83" stop-color="#F69927"/>
<stop offset="1" stop-color="#F59220"/>
</linearGradient>
<linearGradient id="paint1_linear_123_10227" x1="11.7301" y1="8.11782" x2="20.2826" y2="8.11782" gradientUnits="userSpaceOnUse">
<stop stop-color="#FAAE3C"/>
<stop offset="0.37" stop-color="#F9A836"/>
<stop offset="0.83" stop-color="#F69927"/>
<stop offset="1" stop-color="#F59220"/>
</linearGradient>
<linearGradient id="paint2_linear_123_10227" x1="11.7305" y1="6.40531" x2="24.0007" y2="6.40531" gradientUnits="userSpaceOnUse">
<stop stop-color="#FAAE3C"/>
<stop offset="0.37" stop-color="#F9A836"/>
<stop offset="0.83" stop-color="#F69927"/>
<stop offset="1" stop-color="#F59220"/>
</linearGradient>
</defs>
</svg>
