<svg width="40" height="40" viewBox="0 0 40 40" fill="none" xmlns="http://www.w3.org/2000/svg">
<g id="mingcute:upload-fill" clip-path="url(#clip0_1078_23004)">
<g id="Group">
<path id="Vector" d="M18.3333 15V25C18.3338 25.4248 18.4965 25.8334 18.7881 26.1423C19.0797 26.4512 19.4783 26.6371 19.9023 26.662C20.3264 26.6869 20.744 26.5489 21.0697 26.2763C21.3955 26.0036 21.6048 25.6169 21.655 25.195L21.6667 25V15H31.6667C32.5076 14.9998 33.3176 15.3174 33.9342 15.8892C34.5509 16.461 34.9286 17.2448 34.9917 18.0834L35 18.3334V33.3334C35.0003 34.1743 34.6827 34.9843 34.1108 35.601C33.539 36.2176 32.7553 36.5953 31.9167 36.6584L31.6667 36.6667H8.33333C7.49237 36.667 6.68239 36.3494 6.06575 35.7776C5.44912 35.2057 5.07141 34.422 5.00833 33.5834L5 33.3334V18.3334C4.99973 17.4924 5.31734 16.6824 5.88916 16.0658C6.46098 15.4492 7.24474 15.0715 8.08333 15.0084L8.33333 15H18.3333ZM21.4733 4.11505L27.0717 9.71172C27.3844 10.0245 27.5601 10.4486 27.5601 10.8909C27.5601 11.3332 27.3844 11.7573 27.0717 12.07C26.7589 12.3828 26.3348 12.5585 25.8925 12.5585C25.4502 12.5585 25.0261 12.3828 24.7133 12.07L21.6667 9.02172V15H18.3333V9.02172L15.2867 12.07C15.1318 12.2249 14.948 12.3477 14.7457 12.4315C14.5433 12.5153 14.3265 12.5585 14.1075 12.5585C13.8885 12.5585 13.6717 12.5153 13.4693 12.4315C13.267 12.3477 13.0832 12.2249 12.9283 12.07C12.7735 11.9152 12.6506 11.7314 12.5668 11.529C12.483 11.3267 12.4399 11.1099 12.4399 10.8909C12.4399 10.6719 12.483 10.455 12.5668 10.2527C12.6506 10.0504 12.7735 9.86657 12.9283 9.71172L18.5283 4.11505C18.919 3.72474 19.4486 3.50549 20.0008 3.50549C20.5531 3.50549 21.0827 3.72474 21.4733 4.11505Z" fill="white"/>
</g>
</g>
<defs>
<clipPath id="clip0_1078_23004">
<rect width="40" height="40" fill="white"/>
</clipPath>
</defs>
</svg>
