<svg width="24" height="25" viewBox="0 0 24 25" fill="none" xmlns="http://www.w3.org/2000/svg">
<g id="clarity:circle-arrow-solid" clip-path="url(#clip0_1078_22832)">
<path id="Vector" d="M22.666 12.5C22.666 14.6096 22.0404 16.6719 20.8684 18.426C19.6963 20.1802 18.0304 21.5473 16.0813 22.3547C14.1322 23.162 11.9875 23.3732 9.91839 22.9617C7.84926 22.5501 5.94864 21.5342 4.45688 20.0424C2.96512 18.5507 1.94921 16.65 1.53764 14.5809C1.12606 12.5118 1.3373 10.3671 2.14463 8.418C2.95197 6.46892 4.31914 4.80301 6.07327 3.63095C7.82739 2.45888 9.88968 1.83329 11.9993 1.83329C14.8283 1.83329 17.5414 2.95709 19.5418 4.95748C21.5422 6.95787 22.666 9.67098 22.666 12.5ZM12.286 7.16662C12.1117 7.34477 12.0142 7.58407 12.0142 7.83329C12.0142 8.0825 12.1117 8.32181 12.286 8.49996L15.3327 11.5666L5.90602 11.5666C5.65848 11.5666 5.42108 11.665 5.24605 11.84C5.07102 12.015 4.97268 12.2524 4.97268 12.5C4.97268 12.7475 5.07102 12.9849 5.24605 13.1599C5.42108 13.335 5.65848 13.4333 5.90602 13.4333L15.2393 13.4333L12.286 16.3866C12.1092 16.5634 12.0099 16.8032 12.0099 17.0533C12.0099 17.3033 12.1092 17.5431 12.286 17.72C12.4628 17.8968 12.7026 17.9961 12.9527 17.9961C13.2027 17.9961 13.4425 17.8968 13.6193 17.72L18.866 12.4466L13.606 7.16662C13.5193 7.07994 13.4165 7.01119 13.3032 6.96428C13.19 6.91737 13.0686 6.89322 12.946 6.89322C12.8234 6.89322 12.7021 6.91737 12.5888 6.96428C12.4756 7.01119 12.3727 7.07994 12.286 7.16662Z" fill="url(#paint0_linear_1078_22832)"/>
</g>
<defs>
<linearGradient id="paint0_linear_1078_22832" x1="20.6607" y1="0.915955" x2="1.33268" y2="22.9533" gradientUnits="userSpaceOnUse">
<stop stop-color="#E74B90"/>
<stop offset="0.0001" stop-color="#E74B90"/>
<stop offset="1" stop-color="#E28C6F"/>
</linearGradient>
<clipPath id="clip0_1078_22832">
<rect width="24" height="24" fill="white" transform="matrix(0 -1 -1 0 24 24.5)"/>
</clipPath>
</defs>
</svg>
