<svg width="104" height="104" viewBox="0 0 104 104" fill="none" xmlns="http://www.w3.org/2000/svg">
<path d="M40.625 77.9967H63.375V74.7484H100.75L102.375 76.3717V81.2484C102.375 83.0521 100.914 84.4984 99.125 84.4984H4.875C3.07288 84.4984 1.625 83.0521 1.625 81.2484V76.3717L3.24837 74.7484H40.625V77.9967Z" fill="#C9C9C9"/>
<path d="M61.75 74.7484C62.6437 74.7484 63.375 75.4796 63.375 76.3734V77.9984C63.375 78.8921 62.6437 79.6234 61.75 79.6234H42.25C41.3562 79.6234 40.625 78.8921 40.625 77.9984V76.3734C40.625 75.4796 41.3562 74.7484 42.25 74.7484H61.75Z" fill="#EFEFEF"/>
<path d="M95.875 22.7516V24.3766H8.125V22.7516C8.125 20.9495 9.57288 19.5016 11.375 19.5016H92.625C93.487 19.5016 94.3136 19.8441 94.9231 20.4535C95.5326 21.063 95.875 21.8897 95.875 22.7516Z" fill="#C9C9C9"/>
<path d="M95.875 24.3766V74.7484H8.125V24.3766H95.875Z" fill="url(#paint0_linear_22_2597)"/>
<path d="M48.7191 74.7484H39.0146L48.7744 24.375H58.4789L48.7191 74.7484ZM55.2256 74.7484H52.0276L61.7858 24.375H64.9854L55.2256 74.7484Z" fill="#690BB4"/>
<path d="M53.6738 23.5641C52.7751 23.5641 52.0406 22.8378 52.0406 21.9391C52.0406 21.0405 52.7589 20.3141 53.6559 20.3141H53.6738C54.1047 20.3141 54.5181 20.4854 54.8228 20.7901C55.1276 21.0948 55.2988 21.5082 55.2988 21.9391C55.2988 22.3701 55.1276 22.7834 54.8228 23.0882C54.5181 23.3929 54.1047 23.5641 53.6738 23.5641Z" fill="url(#paint1_linear_22_2597)"/>
<path d="M40.625 74.7484H63.375V76.3734H40.625V74.7484Z" fill="#EFEFEF"/>
<path d="M8.125 24.3766H11.375V74.7484H8.125V24.3766ZM92.625 24.3766H95.875V74.7484H92.625V24.3766Z" fill="#C9C9C9"/>
<path d="M3.25 77.9984C4.14746 77.9984 4.875 77.2708 4.875 76.3734C4.875 75.4759 4.14746 74.7484 3.25 74.7484C2.35254 74.7484 1.625 75.4759 1.625 76.3734C1.625 77.2708 2.35254 77.9984 3.25 77.9984Z" fill="#C9C9C9"/>
<path d="M100.75 77.9984C101.647 77.9984 102.375 77.2708 102.375 76.3734C102.375 75.4759 101.647 74.7484 100.75 74.7484C99.8525 74.7484 99.125 75.4759 99.125 76.3734C99.125 77.2708 99.8525 77.9984 100.75 77.9984Z" fill="#C9C9C9"/>
<defs>
<linearGradient id="paint0_linear_22_2597" x1="99.6482" y1="29.1116" x2="51.5518" y2="102.597" gradientUnits="userSpaceOnUse">
<stop stop-color="#E74B90"/>
<stop offset="0.0001" stop-color="#E74B90"/>
<stop offset="1" stop-color="#E28C6F"/>
</linearGradient>
<linearGradient id="paint1_linear_22_2597" x1="55.4389" y1="20.6196" x2="52.0805" y2="23.5725" gradientUnits="userSpaceOnUse">
<stop stop-color="#E74B90"/>
<stop offset="0.0001" stop-color="#E74B90"/>
<stop offset="1" stop-color="#E28C6F"/>
</linearGradient>
</defs>
</svg>
