<svg width="86" height="104" viewBox="0 0 86 104" fill="none" xmlns="http://www.w3.org/2000/svg">
<g clip-path="url(#clip0_22_2614)">
<path d="M27.2194 42.4091L32.81 51.5832H54.125L23.6913 1.64209H2.37622L24.5089 37.9612" fill="#ED612D"/>
<path d="M23.6913 1.64209L54.125 51.5832H43.2484L12.8148 1.64209H23.6913Z" fill="#00B9E8"/>
<path d="M31.6522 49.683L42.5018 32.5098L37.4153 24.163L26.5658 41.3364L27.2195 42.4091L31.6522 49.683Z" fill="#E7538C"/>
<path d="M31.8793 32.9262L36.9653 41.2728L42.5017 32.5098L37.4152 24.163L31.8793 32.9262Z" fill="#00B9E8"/>
<path d="M59.1681 42.4091L53.5775 51.5832H32.2626L62.6962 1.64209H84.0113L61.8784 37.9612" fill="#00B9E8"/>
<path d="M62.6962 1.64209L32.2626 51.5832H43.1389L73.5727 1.64209H62.6962Z" fill="#ED612D"/>
<path d="M42.9202 61.9103C33.2781 61.9103 25.4336 69.755 25.4336 79.3971C25.4336 89.0394 33.2781 96.8841 42.9202 96.8841C52.563 96.8841 60.4072 89.0394 60.4072 79.3971C60.4072 69.755 52.5628 61.9103 42.9202 61.9103Z" fill="url(#paint0_linear_22_2614)"/>
<path d="M35.981 79.3971C35.981 71.5922 41.1217 64.9669 48.1939 62.7246C46.4882 62.1838 44.7094 61.9091 42.92 61.91C33.2778 61.91 25.4333 69.7547 25.4333 79.3969C25.4333 89.0392 33.2778 96.8839 42.92 96.8839C44.7094 96.8849 46.4882 96.6101 48.1939 96.0694C41.1217 93.8275 35.981 87.2019 35.981 79.3971Z" fill="url(#paint1_linear_22_2614)"/>
<path d="M50.6058 77.5529C50.5342 77.3322 50.4022 77.1358 50.2247 76.9862C50.0473 76.8366 49.8314 76.7397 49.6017 76.7065L45.7557 76.1473L44.0355 72.6619C43.9327 72.4539 43.7738 72.2788 43.5767 72.1563C43.3796 72.0339 43.1522 71.969 42.9201 71.969C42.6881 71.969 42.4607 72.0339 42.2636 72.1563C42.0665 72.2788 41.9076 72.4539 41.8048 72.6619L40.0847 76.1473L36.2383 76.7065C36.0087 76.7399 35.7929 76.8368 35.6155 76.9864C35.4381 77.1359 35.306 77.3322 35.2343 77.5529C35.1626 77.7736 35.1541 78.01 35.2097 78.2353C35.2654 78.4606 35.3829 78.6658 35.5491 78.8278L38.3325 81.5411L37.6752 85.3718C37.6362 85.6005 37.6619 85.8356 37.7493 86.0505C37.8368 86.2653 37.9826 86.4515 38.1703 86.5879C38.358 86.7242 38.5801 86.8054 38.8115 86.8223C39.0429 86.8391 39.2743 86.791 39.4798 86.6832L42.9201 84.8746L46.3605 86.6832C46.5659 86.7914 46.7975 86.84 47.0291 86.8233C47.2607 86.8067 47.483 86.7255 47.6709 86.589C47.8587 86.4526 48.0046 86.2662 48.0919 86.0511C48.1793 85.8359 48.2047 85.6006 48.1652 85.3718L47.5083 81.5411L50.2913 78.8278C50.4575 78.6658 50.575 78.4605 50.6306 78.2352C50.6861 78.01 50.6775 77.7736 50.6058 77.5529Z" fill="#E48972"/>
<path d="M42.9202 102.358C30.2598 102.358 19.9597 92.0579 19.9597 79.3971C19.9597 66.7367 30.2596 56.4365 42.9202 56.4365C55.5809 56.4365 65.881 66.7365 65.881 79.3971C65.8808 92.0577 55.5809 102.358 42.9202 102.358ZM42.9202 61.9103C33.278 61.9103 25.4335 69.755 25.4335 79.3971C25.4335 89.0394 33.278 96.8841 42.9202 96.8841C52.5629 96.8841 60.4072 89.0394 60.4072 79.3971C60.4072 69.755 52.5627 61.9103 42.9202 61.9103Z" fill="#E48972"/>
<path d="M49.8381 75.0815L46.8462 74.6466L45.508 71.9349C45.0183 70.9428 44.0266 70.3265 42.9202 70.3265C41.8136 70.3265 40.8223 70.9426 40.3324 71.9351L38.9944 74.6466L36.0028 75.0815C34.9071 75.2407 34.0144 75.9931 33.6728 77.0457C33.3307 78.0985 33.6106 79.2319 34.403 80.0036L36.5683 82.1145L36.057 85.0945C35.87 86.1847 36.3097 87.2661 37.2055 87.9172C37.698 88.2763 38.2921 88.4692 38.9016 88.468C39.3678 88.468 39.8319 88.3535 40.2443 88.1365L42.9204 86.7295L45.5952 88.1355C46.0098 88.3534 46.4711 88.4674 46.9395 88.4678C47.5525 88.4678 48.1391 88.2773 48.6353 87.917C49.5309 87.2668 49.9709 86.1853 49.7838 85.0943L49.273 82.1145L51.4375 80.004C52.2303 79.2319 52.51 78.0983 52.1683 77.0461C51.826 75.9931 50.9331 75.2403 49.8381 75.0815ZM46.3618 80.3654C46.1711 80.5512 46.0285 80.7806 45.9462 81.0338C45.864 81.287 45.8446 81.5564 45.8897 81.8187L46.4101 84.854L43.6842 83.4208C43.4485 83.2969 43.1863 83.2322 42.92 83.2322C42.6538 83.2322 42.3915 83.2969 42.1559 83.4208L39.4301 84.8538L39.9507 81.8189C39.9959 81.5565 39.9765 81.2871 39.8942 81.0339C39.812 80.7806 39.6694 80.5512 39.4787 80.3654L37.2733 78.2155L40.321 77.7725C40.5845 77.7342 40.8347 77.6324 41.0501 77.4759C41.2654 77.3194 41.4395 77.1128 41.5573 76.8741L42.92 74.1128L44.2832 76.8741C44.401 77.1128 44.5751 77.3193 44.7905 77.4758C45.0058 77.6323 45.256 77.7341 45.5194 77.7725L48.5669 78.2155L46.3618 80.3654Z" fill="#212121"/>
<path d="M42.9202 60.2682C32.3723 60.2682 23.7915 68.8494 23.7915 79.3971C23.7915 89.9452 32.3725 98.5264 42.9202 98.5264C53.4679 98.5264 62.0495 89.9452 62.0495 79.3971C62.0493 68.8492 53.4679 60.2682 42.9202 60.2682ZM42.9202 95.2421C34.1836 95.2421 27.0756 88.1339 27.0756 79.3971C27.0756 70.6603 34.1836 63.5523 42.9202 63.5523C51.657 63.5523 58.7652 70.6603 58.7652 79.3971C58.7652 88.1339 51.657 95.2421 42.9202 95.2421Z" fill="#212121"/>
<path d="M60.476 37.1071C60.3638 37.2912 60.2889 37.4957 60.2557 37.7087C60.2225 37.9218 60.2316 38.1394 60.2825 38.3489C60.3334 38.5585 60.425 38.756 60.5522 38.9301C60.6794 39.1042 60.8397 39.2516 61.0239 39.3638C61.208 39.4761 61.4124 39.551 61.6255 39.5842C61.8386 39.6174 62.0561 39.6084 62.2657 39.5575C62.4753 39.5067 62.6728 39.415 62.8469 39.2878C63.021 39.1606 63.1684 39.0003 63.2806 38.8162L85.4133 2.49661C85.5649 2.24766 85.6476 1.96283 85.6528 1.67137C85.6579 1.37991 85.5854 1.09233 85.4427 0.838161C85.3 0.583991 85.0922 0.372391 84.8406 0.225092C84.5891 0.0777925 84.3028 0.000102547 84.0113 2.30997e-07H62.6964C62.4148 -1.73247e-05 62.1379 0.0724132 61.8923 0.210329C61.6467 0.348245 61.4408 0.54701 61.2942 0.787516L43 30.8076L24.7059 0.787516C24.5594 0.547037 24.3534 0.348294 24.1078 0.210381C23.8623 0.072469 23.5854 2.1808e-05 23.3038 2.30997e-07H1.98864C1.69703 -0.000154448 1.41065 0.0773754 1.15895 0.224615C0.907248 0.371854 0.699314 0.583488 0.556535 0.837746C0.413756 1.092 0.341288 1.37971 0.346584 1.67127C0.35188 1.96282 0.43475 2.2477 0.586669 2.49661L29.0242 49.1619C27.9557 49.9986 27.2651 51.2966 27.2651 52.7558V60.4315C21.8035 64.9478 18.3174 71.773 18.3174 79.3971C18.3174 92.9632 29.3538 104 42.92 104C56.4861 104 67.5229 92.9632 67.5229 79.3971C67.5229 71.773 64.0366 64.9476 58.5748 60.4315V52.756C58.5748 51.3691 57.9376 50.0973 56.9226 49.2497L60.5703 43.2638C60.6825 43.0797 60.7574 42.8752 60.7906 42.6621C60.8238 42.4491 60.8147 42.2315 60.7639 42.022C60.713 41.8124 60.6213 41.6149 60.4941 41.4408C60.3669 41.2666 60.2066 41.1193 60.0225 41.0071C59.2484 40.5348 58.238 40.7802 57.7657 41.5547L53.2064 49.0364L53.2044 49.039L52.6547 49.9413H46.0623L74.4949 3.28413H81.0873L60.476 37.1071ZM63.6184 3.28413H70.6488L55.042 28.8949L42.2167 49.9411H35.1864L63.6184 3.28413ZM41.0772 33.9631L37.5914 39.6831L15.4101 3.28413H22.3816L41.0772 33.9631ZM11.5642 3.28413L35.6686 42.8387L32.408 48.1894H32.2778L4.91262 3.28413H11.5642ZM64.2387 79.3971C64.2387 91.1521 54.6752 100.716 42.92 100.716C31.1651 100.716 21.6018 91.1521 21.6018 79.3969C21.6018 72.5392 24.8573 66.4284 29.9031 62.5263C29.9057 62.5243 29.9088 62.5229 29.9116 62.5207C30.3693 62.1671 30.8409 61.8319 31.3254 61.516L31.3729 61.4847C31.6506 61.3053 31.9323 61.1322 32.2179 60.9657C32.5798 60.7546 32.9478 60.5542 33.3217 60.3651C34.8424 59.5942 36.4507 59.01 38.1116 58.6251C38.4262 58.5524 38.7439 58.4874 39.0636 58.4287C39.1018 58.4218 39.1396 58.4143 39.1778 58.4074C39.3265 58.381 39.4758 58.3564 39.6253 58.333C39.7545 58.3131 39.884 58.2946 40.0138 58.2772C40.1739 58.2552 40.3346 58.2353 40.4957 58.217C40.6575 58.199 40.8192 58.1821 40.9817 58.1673C41.0648 58.1598 41.1477 58.1516 41.231 58.1451C41.5334 58.1217 41.8364 58.1046 42.1395 58.094C42.3991 58.0848 42.6593 58.0781 42.9206 58.0781C43.1818 58.0781 43.4418 58.0846 43.7016 58.094C43.7648 58.0962 43.8283 58.0984 43.8917 58.1013C44.1318 58.112 44.3717 58.1264 44.6104 58.1451C44.6936 58.1516 44.7763 58.1598 44.859 58.1673C45.1821 58.1965 45.5044 58.2331 45.8259 58.277C46.1059 58.3147 46.3851 58.3582 46.6633 58.4074C46.7021 58.4141 46.7409 58.422 46.7795 58.4291C47.098 58.4876 47.4145 58.5524 47.7277 58.6249L47.7308 58.6255C49.4657 59.0275 51.143 59.647 52.7228 60.4693C52.8546 60.5378 52.9858 60.607 53.1158 60.6781C53.5774 60.9316 54.0298 61.2013 54.4723 61.4868L54.5093 61.5111C54.996 61.8284 55.4698 62.1652 55.9295 62.5205C55.9323 62.5227 55.9354 62.5239 55.9382 62.5261C60.9832 66.4288 64.2387 72.5394 64.2387 79.3971ZM53.5775 53.2253C53.8591 53.2252 54.136 53.1528 54.3816 53.0149C54.6271 52.877 54.8331 52.6782 54.9797 52.4377L55.0949 52.2486L55.1454 52.1655C55.2385 52.3435 55.2905 52.545 55.2905 52.7558V58.1336C52.6362 56.5764 49.7093 55.5398 46.6666 55.0792L46.652 55.0769C46.1259 54.9972 45.5973 54.9346 45.0672 54.889C44.9484 54.8787 44.8293 54.8685 44.7101 54.8598C44.4468 54.8411 44.1833 54.8266 43.9195 54.8163C43.8324 54.8129 43.7453 54.8088 43.6579 54.8062C43.4121 54.7985 43.1663 54.7945 42.9204 54.7942C42.6734 54.7942 42.428 54.7991 42.1828 54.8062C42.0955 54.8088 42.0083 54.8127 41.9212 54.8163C41.6575 54.8266 41.3939 54.8411 41.1306 54.8598C41.0114 54.8683 40.8924 54.8787 40.7735 54.889C40.2415 54.9347 39.7132 54.9975 39.1888 55.0769L39.1741 55.0792C36.1315 55.5398 33.2046 56.5765 30.5502 58.1336V52.7558C30.5499 52.5361 30.6065 52.32 30.7144 52.1286C30.7172 52.1367 30.7223 52.1444 30.7253 52.1528C30.755 52.233 30.7891 52.3118 30.8318 52.3876C30.9745 52.6418 31.1824 52.8534 31.434 53.0007C31.6856 53.1479 31.9719 53.2255 32.2634 53.2255H43.1351L43.1383 53.2257L43.1418 53.2255L53.5775 53.2253Z" fill="#212121"/>
</g>
<defs>
<linearGradient id="paint0_linear_22_2614" x1="61.9111" y1="65.1978" x2="25.7831" y2="96.8839" gradientUnits="userSpaceOnUse">
<stop stop-color="#E74B90"/>
<stop offset="0.0001" stop-color="#E74B90"/>
<stop offset="1" stop-color="#E28C6F"/>
</linearGradient>
<linearGradient id="paint1_linear_22_2614" x1="49.1726" y1="65.1976" x2="17.7969" y2="83.1061" gradientUnits="userSpaceOnUse">
<stop stop-color="#E74B90"/>
<stop offset="0.0001" stop-color="#E74B90"/>
<stop offset="1" stop-color="#E28C6F"/>
</linearGradient>
<clipPath id="clip0_22_2614">
<rect width="86" height="104" fill="white"/>
</clipPath>
</defs>
</svg>
