<svg width="104" height="104" viewBox="0 0 104 104" fill="none" xmlns="http://www.w3.org/2000/svg">
<path d="M5.6875 28.4407H72.2962V70.7021H5.6875V28.4407Z" fill="white"/>
<path d="M72.2962 26.7995V28.4408H5.6875V26.7995C5.6875 25.0283 7.10125 23.582 8.8725 23.5495H69.0462C70.8337 23.5495 72.2962 25.012 72.2962 26.7995Z" fill="#C9C9C9"/>
<path d="M5.6875 28.4407H9.03988V70.6729H5.6875V28.4407ZM69.0349 28.4407H72.3873V70.6729H69.0349V28.4407Z" fill="#C9C9C9"/>
<path d="M46.2962 70.6745H67.405C64.7238 70.6745 62.53 72.852 62.53 75.5495C62.53 78.247 64.7238 80.4245 67.405 80.4245H4.0625C2.25875 80.4245 0.8125 78.9766 0.8125 77.1745V70.6745H46.2962Z" fill="#212121"/>
<path d="M26.7963 70.6729V73.9245C26.7963 74.8182 27.5275 75.5495 28.4213 75.5495H44.6713C45.565 75.5495 46.2963 74.8182 46.2963 73.9245V70.6729H26.7963Z" fill="#33207E"/>
<path d="M54.4342 52.8125H18.6842C18.2532 52.8125 17.8399 52.6413 17.5352 52.3365C17.2304 52.0318 17.0592 51.6185 17.0592 51.1875C17.0592 50.7565 17.2304 50.3432 17.5352 50.0385C17.8399 49.7337 18.2532 49.5625 18.6842 49.5625H54.4342C54.8652 49.5625 55.2785 49.7337 55.5833 50.0385C55.888 50.3432 56.0592 50.7565 56.0592 51.1875C56.0592 51.6185 55.888 52.0318 55.5833 52.3365C55.2785 52.6413 54.8652 52.8125 54.4342 52.8125ZM54.4342 57.6875H18.6842C18.2532 57.6875 17.8399 57.5163 17.5352 57.2115C17.2304 56.9068 17.0592 56.4935 17.0592 56.0625C17.0592 55.6315 17.2304 55.2182 17.5352 54.9135C17.8399 54.6087 18.2532 54.4375 18.6842 54.4375H54.4342C54.8652 54.4375 55.2785 54.6087 55.5833 54.9135C55.888 55.2182 56.0592 55.6315 56.0592 56.0625C56.0592 56.4935 55.888 56.9068 55.5833 57.2115C55.2785 57.5163 54.8652 57.6875 54.4342 57.6875ZM46.3092 62.5625H26.8092C26.3782 62.5625 25.9649 62.3913 25.6602 62.0865C25.3554 61.7818 25.1842 61.3685 25.1842 60.9375C25.1842 60.5065 25.3554 60.0932 25.6602 59.7885C25.9649 59.4837 26.3782 59.3125 26.8092 59.3125H46.3092C46.7402 59.3125 47.1535 59.4837 47.4583 59.7885C47.763 60.0932 47.9342 60.5065 47.9342 60.9375C47.9342 61.3685 47.763 61.7818 47.4583 62.0865C47.1535 62.3913 46.7402 62.5625 46.3092 62.5625Z" fill="#EFEFEF"/>
<path d="M67.405 52.8125H67.2913C66.0183 52.7824 64.8076 52.2556 63.9179 51.3446C63.0282 50.4337 62.5301 49.2109 62.53 47.9375C62.53 46.6431 63.0431 45.4014 63.9569 44.4846C64.8707 43.5678 66.1106 43.0506 67.405 43.0463V43.0625H101.561V52.8125H67.405Z" fill="white"/>
<path d="M67.4099 54.4342C63.8235 54.4342 60.905 51.5157 60.905 47.9294C60.905 44.343 63.8235 41.4245 67.4099 41.4245C67.8409 41.4245 68.2542 41.5957 68.559 41.9004C68.8637 42.2052 69.0349 42.6185 69.0349 43.0495C69.0349 43.4805 68.8637 43.8938 68.559 44.1985C68.2542 44.5033 67.8409 44.6745 67.4099 44.6745C65.6159 44.6745 64.155 46.1337 64.155 47.9294C64.155 49.725 65.6143 51.1842 67.4099 51.1842C67.8409 51.1842 68.2542 51.3555 68.559 51.6602C68.8637 51.9649 69.0349 52.3783 69.0349 52.8092C69.0349 53.2402 68.8637 53.6536 68.559 53.9583C68.2542 54.263 67.8409 54.4342 67.4099 54.4342Z" fill="#ED612D"/>
<path d="M101.562 44.681H67.4033C66.9723 44.681 66.559 44.5098 66.2543 44.2051C65.9495 43.9003 65.7783 43.487 65.7783 43.056C65.7783 42.6251 65.9495 42.2117 66.2543 41.907C66.559 41.6022 66.9723 41.431 67.4033 41.431H101.562C101.993 41.431 102.407 41.6022 102.711 41.907C103.016 42.2117 103.187 42.6251 103.187 43.056C103.187 43.487 103.016 43.9003 102.711 44.2051C102.407 44.5098 101.993 44.681 101.562 44.681ZM101.562 54.4343H67.4033C66.9723 54.4343 66.559 54.2631 66.2543 53.9583C65.9495 53.6536 65.7783 53.2403 65.7783 52.8093C65.7783 52.3783 65.9495 51.965 66.2543 51.6602C66.559 51.3555 66.9723 51.1843 67.4033 51.1843H101.562C101.993 51.1843 102.407 51.3555 102.711 51.6602C103.016 51.965 103.187 52.3783 103.187 52.8093C103.187 53.2403 103.016 53.6536 102.711 53.9583C102.407 54.2631 101.993 54.4343 101.562 54.4343Z" fill="#ED612D"/>
<path d="M67.405 65.8206H67.2913C66.0183 65.7905 64.8076 65.2637 63.9179 64.3527C63.0282 63.4418 62.5301 62.219 62.53 60.9456C62.53 59.6512 63.0431 58.4095 63.9569 57.4927C64.8707 56.5759 66.1106 56.0587 67.405 56.0544V56.0706H101.561V65.8206H67.405Z" fill="white"/>
<path d="M67.4099 67.4424C63.8235 67.4424 60.905 64.5239 60.905 60.9375C60.905 57.3511 63.8235 54.4326 67.4099 54.4326C67.8409 54.4326 68.2542 54.6038 68.559 54.9086C68.8637 55.2133 69.0349 55.6266 69.0349 56.0576C69.0349 56.4886 68.8637 56.9019 68.559 57.2067C68.2542 57.5114 67.8409 57.6826 67.4099 57.6826C65.6159 57.6826 64.155 59.1419 64.155 60.9375C64.155 62.7331 65.6143 64.1924 67.4099 64.1924C67.8409 64.1924 68.2542 64.3636 68.559 64.6683C68.8637 64.9731 69.0349 65.3864 69.0349 65.8174C69.0349 66.2483 68.8637 66.6617 68.559 66.9664C68.2542 67.2712 67.8409 67.4424 67.4099 67.4424Z" fill="#00B9E8"/>
<path d="M101.563 57.6891H67.4034C66.9725 57.6891 66.5591 57.5179 66.2544 57.2131C65.9496 56.9084 65.7784 56.4951 65.7784 56.0641C65.7784 55.6331 65.9496 55.2198 66.2544 54.915C66.5591 54.6103 66.9725 54.4391 67.4034 54.4391H101.563C101.994 54.4391 102.407 54.6103 102.712 54.915C103.016 55.2198 103.188 55.6331 103.188 56.0641C103.188 56.4951 103.016 56.9084 102.712 57.2131C102.407 57.5179 101.994 57.6891 101.563 57.6891ZM101.563 67.4423H67.4034C66.9725 67.4423 66.5591 67.2711 66.2544 66.9664C65.9496 66.6616 65.7784 66.2483 65.7784 65.8173C65.7784 65.3864 65.9496 64.973 66.2544 64.6683C66.5591 64.3635 66.9725 64.1923 67.4034 64.1923H101.563C101.994 64.1923 102.407 64.3635 102.712 64.6683C103.016 64.973 103.188 65.3864 103.188 65.8173C103.188 66.2483 103.016 66.6616 102.712 66.9664C102.407 67.2711 101.994 67.4423 101.563 67.4423Z" fill="#00B9E8"/>
<path d="M67.405 78.8287H67.2913C66.0183 78.7986 64.8076 78.2718 63.9179 77.3608C63.0282 76.4499 62.5301 75.2271 62.53 73.9537C62.53 72.6593 63.0431 71.4177 63.9569 70.5008C64.8707 69.584 66.1106 69.0668 67.405 69.0625V69.0787H101.561V78.8287H67.405Z" fill="white"/>
<path d="M67.4099 80.4505C63.8235 80.4505 60.905 77.532 60.905 73.9456C60.905 70.3592 63.8235 67.4407 67.4099 67.4407C67.8409 67.4407 68.2542 67.6119 68.559 67.9167C68.8637 68.2214 69.0349 68.6348 69.0349 69.0657C69.0349 69.4967 68.8637 69.91 68.559 70.2148C68.2542 70.5195 67.8409 70.6907 67.4099 70.6907C65.6159 70.6907 64.155 72.15 64.155 73.9456C64.155 75.7412 65.6143 77.2005 67.4099 77.2005C67.8409 77.2005 68.2542 77.3717 68.559 77.6764C68.8637 77.9812 69.0349 78.3945 69.0349 78.8255C69.0349 79.2565 68.8637 79.6698 68.559 79.9745C68.2542 80.2793 67.8409 80.4505 67.4099 80.4505Z" fill="#ED612D"/>
<path d="M101.563 70.6973H67.4034C66.9725 70.6973 66.5591 70.5261 66.2544 70.2213C65.9496 69.9166 65.7784 69.5032 65.7784 69.0723C65.7784 68.6413 65.9496 68.228 66.2544 67.9232C66.5591 67.6185 66.9725 67.4473 67.4034 67.4473H101.563C101.994 67.4473 102.407 67.6185 102.712 67.9232C103.016 68.228 103.188 68.6413 103.188 69.0723C103.188 69.5032 103.016 69.9166 102.712 70.2213C102.407 70.5261 101.994 70.6973 101.563 70.6973ZM101.563 80.4505H67.4034C66.9725 80.4505 66.5591 80.2793 66.2544 79.9746C65.9496 79.6698 65.7784 79.2565 65.7784 78.8255C65.7784 78.3945 65.9496 77.9812 66.2544 77.6765C66.5591 77.3717 66.9725 77.2005 67.4034 77.2005H101.563C101.994 77.2005 102.407 77.3717 102.712 77.6765C103.016 77.9812 103.188 78.3945 103.188 78.8255C103.188 79.2565 103.016 79.6698 102.712 79.9746C102.407 80.2793 101.994 80.4505 101.563 80.4505Z" fill="#ED612D"/>
<path d="M56.0479 43.0511C56.0479 43.9449 55.3167 44.6761 54.4229 44.6761H18.7021C17.8084 44.6761 17.0771 43.9449 17.0771 43.0511V41.4261C17.0771 40.5324 17.8084 39.8011 18.7021 39.8011H54.4229C55.3167 39.8011 56.0479 40.5324 56.0479 41.4261V43.0511Z" fill="#EFEFEF"/>
<path d="M18.7021 39.8011C17.8084 39.8011 17.0771 40.5324 17.0771 41.4261V43.0511C17.0771 43.9449 17.8084 44.6761 18.7021 44.6761H38.9919L34.1169 39.8011H18.7021Z" fill="#ED612D"/>
</svg>
