<svg width="24" height="24" viewBox="0 0 24 24" fill="none" xmlns="http://www.w3.org/2000/svg">
<g clip-path="url(#clip0_1189_18894)">
<path d="M19.8793 19.8792C24.2309 15.5277 24.2309 8.47235 19.8793 4.12076C15.5277 -0.230819 8.4724 -0.230821 4.12082 4.12076C-0.230768 8.47234 -0.230768 15.5277 4.12082 19.8792C8.4724 24.2308 15.5277 24.2308 19.8793 19.8792Z" fill="url(#paint0_linear_1189_18894)"/>
<path d="M17.5144 11.0878L8.70884 6.68507C8.55335 6.60732 8.38057 6.57061 8.2069 6.57842C8.03324 6.58624 7.86445 6.63831 7.71657 6.72971C7.56869 6.82111 7.44663 6.94879 7.36198 7.10063C7.27733 7.25247 7.2329 7.42343 7.23291 7.59728V16.4027C7.2329 16.5765 7.27733 16.7475 7.36198 16.8993C7.44663 17.0512 7.56869 17.1788 7.71657 17.2702C7.86445 17.3616 8.03324 17.4137 8.2069 17.4215C8.38057 17.4293 8.55335 17.3926 8.70884 17.3149L17.5144 12.9122C18.266 12.5364 18.266 11.4636 17.5144 11.0878Z" fill="white"/>
</g>
<defs>
<linearGradient id="paint0_linear_1189_18894" x1="14.159" y1="-2.95479" x2="12.1576" y2="27.6009" gradientUnits="userSpaceOnUse">
<stop stop-color="#E74B90"/>
<stop offset="0.0001" stop-color="#E74B90"/>
<stop offset="1" stop-color="#E28C6F"/>
</linearGradient>
<clipPath id="clip0_1189_18894">
<rect width="24" height="24" fill="white"/>
</clipPath>
</defs>
</svg>
